<?xml version="1.0" encoding="UTF-8"?>
<svg id="_레이어_1" data-name="레이어 1" xmlns="http://www.w3.org/2000/svg" viewBox="0 0 20 20">
  <defs>
    <style>
      .cls-1 {
        fill: #04260c;
        stroke-width: 0px;
      }
    </style>
  </defs>
  <path class="cls-1" d="m10,16.74c-.28,0-.5-.22-.5-.5V5.44l-2.9,2.9c-.2.2-.51.2-.71,0s-.2-.51,0-.71l3.75-3.75s.02-.02.03-.03c0,0,0,0,0,0h0c.08-.07.17-.1.27-.12h0s.06,0,.08,0h0c.12,0,.23.06.32.15l3.75,3.75c.1.1.15.23.15.35s-.05.26-.15.35c-.2.2-.51.2-.71,0l-2.9-2.9v10.79c0,.28-.22.5-.5.5Z"/>
  <path class="cls-1" d="m10,20C4.49,20,0,15.51,0,10S4.49,0,10,0s10,4.49,10,10-4.49,10-10,10ZM10,.95C5.01.95.95,5.01.95,10s4.06,9.05,9.05,9.05,9.05-4.06,9.05-9.05S14.99.95,10,.95Z"/>
</svg>