<?xml version="1.0" encoding="UTF-8"?>
<svg id="_레이어_1" data-name=" 레이어 1" xmlns="http://www.w3.org/2000/svg" xmlns:xlink="http://www.w3.org/1999/xlink" viewBox="0 0 25 25">
  <defs>
    <style>
      .cls-1, .cls-2, .cls-3 {
        fill: #04260c;
      }

      .cls-2 {
        fill-rule: evenodd;
      }

      .cls-2, .cls-3 {
        stroke-width: 0px;
      }

      .cls-4 {
        clip-path: url(#clippath-1);
      }

      .cls-5 {
        clip-path: url(#clippath);
      }
    </style>
    <clipPath id="clippath">
      <path class="cls-3" d="m12.5,25c-3.34,0-6.48-1.3-8.84-3.66C1.3,18.98,0,15.84,0,12.5S1.3,6.02,3.66,3.66C6.02,1.3,9.16,0,12.5,0s6.48,1.3,8.84,3.66c2.36,2.36,3.66,5.5,3.66,8.84s-1.3,6.48-3.66,8.84-5.5,3.66-8.84,3.66ZM12.5.85C6.08.85.85,6.08.85,12.5s5.23,11.65,11.65,11.65,11.65-5.23,11.65-11.65S18.92.85,12.5.85Z"/>
    </clipPath>
    <clipPath id="clippath-1">
      <polygon class="cls-3" points="14.85 16.3 6.04 16.3 10.15 8.7 18.96 8.7 14.85 16.3"/>
    </clipPath>
  </defs>
  <g>
    <path class="cls-3" d="m12.5,25c-3.34,0-6.48-1.3-8.84-3.66C1.3,18.98,0,15.84,0,12.5S1.3,6.02,3.66,3.66C6.02,1.3,9.16,0,12.5,0s6.48,1.3,8.84,3.66c2.36,2.36,3.66,5.5,3.66,8.84s-1.3,6.48-3.66,8.84-5.5,3.66-8.84,3.66ZM12.5.85C6.08.85.85,6.08.85,12.5s5.23,11.65,11.65,11.65,11.65-5.23,11.65-11.65S18.92.85,12.5.85Z"/>
    <g>
      <path class="cls-1" d="m12.5,25c-3.34,0-6.48-1.3-8.84-3.66C1.3,18.98,0,15.84,0,12.5S1.3,6.02,3.66,3.66C6.02,1.3,9.16,0,12.5,0s6.48,1.3,8.84,3.66c2.36,2.36,3.66,5.5,3.66,8.84s-1.3,6.48-3.66,8.84-5.5,3.66-8.84,3.66ZM12.5.85C6.08.85.85,6.08.85,12.5s5.23,11.65,11.65,11.65,11.65-5.23,11.65-11.65S18.92.85,12.5.85Z"/>
      <g class="cls-5">
        <path class="cls-3" d="m12.5,25c-3.34,0-6.48-1.3-8.84-3.66C1.3,18.98,0,15.84,0,12.5S1.3,6.02,3.66,3.66C6.02,1.3,9.16,0,12.5,0s6.48,1.3,8.84,3.66c2.36,2.36,3.66,5.5,3.66,8.84s-1.3,6.48-3.66,8.84-5.5,3.66-8.84,3.66ZM12.5.85C6.08.85.85,6.08.85,12.5s5.23,11.65,11.65,11.65,11.65-5.23,11.65-11.65S18.92.85,12.5.85Z"/>
      </g>
    </g>
  </g>
  <g>
    <polyline class="cls-2" points="14.85 16.3 6.04 16.3 10.15 8.7 18.96 8.7 14.85 16.3"/>
    <g>
      <polygon class="cls-1" points="14.85 16.3 6.04 16.3 10.15 8.7 18.96 8.7 14.85 16.3"/>
      <g class="cls-4">
        <rect class="cls-3" x="5.8" y="8.47" width="13.4" height="8.07"/>
      </g>
    </g>
  </g>
</svg>