<?xml version="1.0" encoding="UTF-8"?>
<svg id="_레이어_1" data-name=" 레이어 1" xmlns="http://www.w3.org/2000/svg" viewBox="0 0 25 21.69">
  <defs>
    <style>
      .cls-1 {
        fill: #04260c;
        stroke-width: 0px;
      }
    </style>
  </defs>
  <path class="cls-1" d="m8.53,13.28h12.57l3.9-9.74H6.1l-.89-3.54H0v.89h4.52l3.98,15.94h13.18v-.89h-12.49s-.66-2.66-.66-2.66Zm15.16-8.85l-.53,1.33h-14.75v.89h14.4l-.53,1.33h-13.42v.89h13.07l-.53,1.33h-12.09v.89h11.74l-.53,1.33h-12.19l-.44-1.77-1.55-6.2h17.37s-.02-.02-.02-.02Z"/>
  <path class="cls-1" d="m11.07,17.27c-1.22,0-2.21.99-2.21,2.21s.99,2.21,2.21,2.21,2.21-.99,2.21-2.21-.99-2.21-2.21-2.21Zm0,3.54c-.73,0-1.33-.6-1.33-1.33s.6-1.33,1.33-1.33,1.33.6,1.33,1.33-.6,1.33-1.33,1.33Z"/>
  <path class="cls-1" d="m19.48,17.27c-1.22,0-2.21.99-2.21,2.21s.99,2.21,2.21,2.21,2.21-.99,2.21-2.21-.99-2.21-2.21-2.21Zm0,3.54c-.73,0-1.33-.6-1.33-1.33s.6-1.33,1.33-1.33,1.33.6,1.33,1.33-.6,1.33-1.33,1.33Z"/>
</svg>