<?xml version="1.0" encoding="UTF-8"?>
<svg id="_레이어_1" data-name=" 레이어 1" xmlns="http://www.w3.org/2000/svg" viewBox="0 0 25.01 25.01">
  <defs>
    <style>
      .cls-1 {
        fill: #04260c;
        stroke-width: 0px;
      }
    </style>
  </defs>
  <path class="cls-1" d="m17.78,25H7.22c-3.98,0-7.22-3.24-7.22-7.22V7.22C0,3.24,3.24,0,7.22,0h10.57c3.98,0,7.22,3.24,7.22,7.22v10.57c0,3.98-3.24,7.22-7.22,7.22h0ZM7.22.85C3.71.85.85,3.71.85,7.22v10.57c0,3.51,2.86,6.37,6.37,6.37h10.57c3.51,0,6.37-2.86,6.37-6.37V7.22c0-3.51-2.86-6.37-6.37-6.37,0,0-10.57,0-10.57,0Z"/>
  <path class="cls-1" d="m12.52,19.34c-3.73,0-6.77-3.04-6.77-6.77s3.04-6.77,6.77-6.77,6.77,3.04,6.77,6.77-3.04,6.77-6.77,6.77Zm0-12.69c-3.26,0-5.92,2.66-5.92,5.92s2.66,5.92,5.92,5.92,5.92-2.66,5.92-5.92-2.66-5.92-5.92-5.92Z"/>
  <circle class="cls-1" cx="20" cy="5.06" r="1.01"/>
</svg>