<?xml version="1.0" encoding="utf-8"?>
<!-- Generator: Adobe Illustrator 27.9.4, SVG Export Plug-In . SVG Version: 9.03 Build 54784)  -->
<svg version="1.1" id="_레이어_1" xmlns="http://www.w3.org/2000/svg" xmlns:xlink="http://www.w3.org/1999/xlink" x="0px"
	 y="0px" viewBox="0 0 164 89" style="enable-background:new 0 0 164 89;" xml:space="preserve">
<style type="text/css">
	.st0{fill:#04260C;}
</style>
<path class="st0" d="M32.1,0.1c0.2,0,0.5,0.2,0.8,0.6c1.4,1.5,2.6,3.3,3.8,5.5c0.3,0.5,0.3,1.2,0,2c-0.2,0.3-0.5,0.5-1.1,0.5H23.9
	c-0.5,0-0.7,0.5-0.7,1.5v1.4c0,1,0.2,1.5,0.7,1.5H32c0.5,0,0.8-0.2,1.1-0.8c0.4-0.8,0.8-1.4,1.2-2.1c0.6-0.8,1.2-1,1.7-0.5
	c1,1.3,2.1,3.1,3.4,5.6c0.3,0.6,0.6,1.3,0.7,2.1c-0.1,1.4-0.5,2-1.3,1.8c-0.3-0.1-0.5,0.2-0.8,0.7c-1,1.6-2.2,3.1-3.4,4.5
	c-0.3,0.3-0.8,0.5-1.3,0.5h-6c-0.5,0.1-1.1,0.2-1.7,0.3c-0.6,0.2-1-0.4-1.3-1.6l-0.2-0.8c-0.3-1.2-0.1-1.7,0.5-1.5
	c1.1,0.3,2.4,0.5,3.7,0.6c0.5,0,0.9-0.5,1.3-1.5c0.6-1.5,1.1-2.4,1.5-2.6c0.3,0.1,0.6,0.4,0.9,1.1c0.5,1,0.7,0.8,0.7-0.5
	s-0.3-1.9-0.7-1.9h-8.3c-0.5,0-0.7,0.5-0.7,1.5v7.2l0.2,6.5c0.1,1-0.1,1.9-0.4,2.6c-0.2,0.3-0.2,0.5,0,0.5c0.9,0.6,1.8,1.7,2.9,3.4
	c0.6,0.8,0.7,1.6,0.3,2.7c-0.3,0.6-0.6,1.2-0.9,1.9c0,2.8,0,6.3,0.2,10.7c0,1,0,1.7-0.1,2c-0.1,0.8-0.4,1.3-0.9,1.7
	c-1,0.7-2,0.8-3.1,0.4c-0.4-0.2-0.6-0.9-0.7-2c0-0.4-0.2-0.7-0.7-0.7c-0.5,0-0.8,0.3-0.9,0.8c-0.1,0.5-0.2,1-0.3,1.5
	c-1.1,1.1-2.3,1.4-3.7,0.7c-0.3-0.3-0.5-0.8-0.5-1.6l0.1-6.2v-7.6c0-1.6-0.1-3.2-0.2-4.8c-0.1-1.5,0.1-2.1,0.7-1.9
	c1,0.6,2.2,1.3,3.3,2.1c0.5,0.5,0.9,0.7,1.4,0.6c0.5,0,0.9-0.5,1.3-1.5l0.4-0.8c0.1-0.2,0.2-0.5,0.4-0.8c0-0.1-0.2-0.1-0.8,0.1
	c-1,0.3-1.9,0.3-2.9,0.1c-0.7-0.3-1.1-1.1-1.1-2.4l0.2-8V18c0-1-0.2-1.5-0.7-1.5H7c-0.4,0-0.6,0.6-0.5,1.9l0.1,1.3
	c0,1.1,0.3,1.7,0.8,1.8c1,0.3,2.1,0.5,3.1,0.5c0.4,0,0.9-0.6,1.4-1.8l0.6-1.4c0.5-1.4,1.1-1.4,1.7,0c0.7,1.1,1.4,2.5,2.1,4
	c0.3,0.6,0.4,1.2,0,1.8c-0.2,0.2-0.5,0.4-1.1,0.4h-5.2c-0.7,0.1-1.4,0.2-2.2,0.4c-0.6,0.2-0.9-0.1-1.1-0.9c-0.2-0.8-0.4-0.6-0.5,0.7
	c-0.4,3-1.2,4.8-2.4,5.2c-0.8,0.2-1.5,0.2-2.1-0.2c-0.6-0.2-1.2-1.1-1.6-2.5c-0.7-3.7-0.3-6.8,1.3-9.3C3.2,16.5,4.1,14,4.3,11
	c0-1.2,0.2-1.9,0.6-2s0.6,0.4,0.8,1.7l0.1,0.8C6,12.4,6.3,13,6.7,13h10c0.5,0,0.7-0.5,0.7-1.5V10c0-1-0.3-1.5-0.9-1.5l-1.8,0.1h-4.1
	C9.5,8.6,8.3,8.7,7.2,9C6.5,9.2,6.1,8.7,5.8,7.5L5.5,5.9C5.2,4.7,5.4,4.2,6,4.4c1.7,0.4,3.5,0.7,5.7,0.8H28c0.5,0,0.8-0.2,1.1-0.8
	C30.5,2,31.5,0.6,32.1,0.1L32.1,0.1z M34.5,34.8c0.3-0.1,0.7,0.2,1.2,0.8c1.2,1.3,2,2.6,2.4,3.8c0.1,0.6-0.1,1.3-0.5,2
	c-0.4,0.8-0.5,1.7-0.5,2.8c0,3,0.1,6,0.2,9.2c-0.1,1.5-0.4,2.4-1.1,2.8c-0.3,0.1-0.2,0.5,0.3,1.2c0.5,0.8,1.1,1.6,1.7,2.7
	c0.7,1,0.8,2,0.5,3.2c-0.1,0.2-0.4,0.3-1,0.3h-8.4c-0.4,0-0.4,0.1,0.2,0.4c1.6,0.6,2.9,1.2,3.8,1.8c0.8,0.4,1,1.2,0.7,2.4
	c-0.1,0.2-0.3,0.5-0.7,0.7c-0.5,0.1-0.7,0.4-0.8,0.8C32.2,69.8,32.5,70,33,70c1.6,0,2.8,0.7,3.7,2.2c0.7,1.3,1,3,0.8,5.1
	c-0.2,1.1,0,2.1,0.5,3l1.5,2.5C40.2,84,40.3,85,40,86c-0.2,0.4-0.6,0.6-1.2,0.5H6.1c-1.7,0.1-3,0.3-3.9,0.5c-0.6,0.1-1-0.5-1.3-1.8
	l-0.2-0.9c-0.3-1.3-0.1-1.9,0.4-1.7c0.3,0,0.6,0.1,1,0.2c0.4,0.1,0.6-0.2,0.5-0.8c-0.2-0.6,0.1-1.4,0.7-2.7c1.8-4.2,3-8.8,3.6-13.9
	c0.1-1.1-0.1-1.6-0.7-1.6L4.5,64c-0.6,0.1-1-0.4-1.3-1.6L3,61c-0.3-1.2-0.1-1.7,0.4-1.6c1.6,0.5,3.3,0.8,5.1,0.8h22.2
	c0.4,0,0.9-0.5,1.3-1.4l0.3-0.6c0.5-1.2,0.7-1.9,0.6-2c-0.1-0.3-0.2-0.6-0.2-1c0-0.2-0.3-0.3-0.8-0.3S31,55.1,31,55.6
	c0,0.9-0.2,1.5-0.5,2c-1,0.8-2.1,1-3.3,0.7c-0.5-0.4-0.7-1.1-0.7-2.3c0-1.5,0-3,0.1-4.5v-8.7c0-1.8-0.1-3.6-0.2-5.4
	c-0.1-1.3,0.2-1.8,0.7-1.5c1.2,0.6,2.5,1.4,4,2.6h0.7c0.5,0,0.9-0.5,1.4-1.5l0.8-1.4C34.1,35.1,34.3,34.9,34.5,34.8L34.5,34.8z
	 M10.3,35.4c0.5-0.8,1-0.8,1.4-0.3c0.5,0.5,1.1,1.2,1.7,2c1.3,1.5,1.5,3,0.6,4.5c-0.3,0.7-0.4,1.5-0.4,2.6v4.8
	c0,1.3,0.1,2.6,0.1,3.9c0.3,2.4-0.2,3.9-1.4,4.5c-0.6,0.4-1.4,0.4-2.4,0.2c-0.4-0.1-0.6-0.6-0.8-1.7c0-0.7-0.3-1-0.8-1
	s-0.7,0.2-0.8,0.7c0.1,1-0.3,1.8-1,2.4c-0.8,0.5-1.8,0.6-2.8,0.2C3.2,57.7,2.9,57,3,56c0-1.9,0.1-3.8,0.1-5.9v-7.3
	c0-1.8-0.1-3.7-0.2-5.5c-0.1-1.3,0.2-1.8,0.8-1.6c0.9,0.5,2,1.2,3.2,2c0.5,0.6,1,0.8,1.4,0.7c0.4,0,0.9-0.5,1.3-1.5l0.4-0.8
	C10.1,35.8,10.2,35.6,10.3,35.4L10.3,35.4z M9.1,63.5c-0.4,0-0.4,0.2,0,0.5c2,0.6,3.6,1.3,4.6,2.3c0.5,0.5,0.5,1.2,0,2.1
	c-0.2,0.3-0.4,0.5-0.7,0.5c-0.4,0.2-0.7,0.6-0.8,0.9C12.2,70,12.5,70,13,70c1.3,0.1,2.4,0.8,3.2,2.1c1,2,1.3,4.5,0.9,7.4
	c-0.1,0.6-0.3,1.2-0.5,1.9c-0.8,1.3-1.7,1.8-2.9,1.3c-0.9-0.2-1.4-1.3-1.5-3.4c0.1-2,0-3.8-0.2-5.3c-0.1-0.6-0.2-1.1-0.5-1.3
	c-0.1,0-0.3,0.6-0.8,1.8C10.1,75.9,9.5,77,9,77.9c-1.7,2.3-3.4,3.9-5.3,4.6c-0.4,0.1-0.3,0.2,0.3,0.4l3.2,0.2h9.7
	c0.5,0,0.7-0.5,0.7-1.5V65c0-1-0.2-1.5-0.7-1.5L9.1,63.5L9.1,63.5z M11.7,28.1c0.8-2.1,1.4-3,1.8-2.6c0.7,1,1.6,2.5,2.5,4.4
	c0.6,1,0.7,1.9,0.3,2.8c-0.1,0.1-0.4,0.2-1,0.2H8.9c-0.5,0.1-1.1,0.2-1.6,0.4c-0.6,0.2-1-0.4-1.3-1.8l-0.1-0.6
	c-0.3-1.2-0.1-1.7,0.5-1.6c1.2,0.4,2.6,0.6,4,0.7C10.8,29.9,11.3,29.3,11.7,28.1L11.7,28.1z M8.4,41.3c-0.5,0-0.8,0.5-0.8,1.5v7.6
	c0,1,0.2,1.5,0.7,1.5c0.5,0,0.8-0.5,0.8-1.5v-7.5C9.1,41.8,8.9,41.3,8.4,41.3L8.4,41.3z M20,41.3c-0.6,0-0.9,0.5-0.9,1.5v7.6
	c0,1,0.3,1.5,0.8,1.5c0.6,0,0.9-0.5,0.9-1.5v-7.5C20.9,41.8,20.6,41.3,20,41.3L20,41.3z M24.1,63.5c-0.5,0-0.7,0.5-0.7,1.5v13.5
	c0,1,0.2,0.9,0.7-0.3c1.6-4.6,2.5-9,2.8-13.3c0.1-1-0.1-1.5-0.6-1.5H24.1z M31.2,72.5c-1.2,3.7-2.5,6.2-4.1,7.7
	c-0.8,0.9-1.8,1.7-3,2.3c-0.5,0.2-0.7,0.3-0.7,0.5c0,0.1,0.3,0.2,0.7,0.2H32c0.5,0,0.8-0.3,1-0.8c0.2-0.4,0.1-0.8-0.2-1.2
	c-0.7-1.3-1-3-0.9-5.2C31.9,74.2,31.6,73.1,31.2,72.5L31.2,72.5z M31.5,26.2c0.4-1.1,0.9-1.1,1.4-0.1c0.7,1,1.5,2.5,2.3,4.5
	c0.2,0.4,0.2,1,0.1,1.7c-0.2,0.6-0.6,0.8-1.2,0.6h-6.8c-0.5,0.1-1.1,0.2-1.7,0.4c-0.6,0.2-1-0.4-1.3-1.7l-0.2-0.8
	c-0.3-1.2-0.1-1.7,0.5-1.4c1.3,0.4,2.8,0.6,4.5,0.6c0.5,0,0.9-0.6,1.5-1.9L31.5,26.2L31.5,26.2z M31.8,41.3c-0.6,0-0.9,0.5-0.9,1.5
	v7.6c0,1,0.3,1.5,0.8,1.5c0.6,0,0.8-0.5,0.8-1.5v-7.5C32.6,41.8,32.4,41.3,31.8,41.3L31.8,41.3z"/>
<path class="st0" d="M50.9,27.5c0.5-1.8,1-2.5,1.5-2.2c1,1.5,2.2,4,3.7,7.5c0.5,1.1,0.6,2.1,0.2,3.1c-0.1,0.1-0.4,0.2-1,0.2h-2.7
	c-0.4,0-0.7,0.6-0.8,1.9c-0.7,8-2.3,14.8-4.7,20.6c-0.5,1.1-0.5,1.6,0,1.5c1.5-0.3,3-0.9,4.6-1.8c0.5-0.2,0.6-1,0.5-2.3
	c-0.3-1.6-0.6-3.5-1.2-5.6c-0.3-1.2-0.4-2,0-2.5c0.2-0.4,0.7-0.2,1.4,0.4c2,2,3.6,4.9,4.8,8.9c0.7,2.6,0.8,5.2,0.4,7.9
	c-0.4,3-1.3,4.6-2.8,4.7c-0.5,0.1-0.9,0-1.2-0.2c-0.8-0.5-1.2-1.8-1.1-3.9c0.1-0.6,0.1-1.7,0-3.1c0-1.1-0.2-1.1-0.7-0.1
	c-2,3.9-4.1,6.9-6.2,8.9c-0.5,0.4-0.7,1.1-0.8,2.1c0,1-0.1,1.8-0.5,2.4c-0.4,0.4-0.8-0.2-1-1.6c-0.7-3.8-1.4-7.9-2-12
	c-0.2-1.6-0.1-2.4,0.4-2.4h2c0.5,0,0.8-0.6,0.9-1.8c0.8-6.9,1.1-13.8,1.1-20.8c0-1-0.2-1.5-0.7-1.5c-0.9,0.1-1.9,0.3-3,0.7
	c-0.3-0.9-0.5-1.8-0.7-2.7c-0.3-1.3-0.1-1.9,0.4-1.8c1.8,0.5,4,0.8,6.4,0.8c0.5,0.1,0.9-0.5,1.3-1.8C50,29.9,50.4,28.7,50.9,27.5
	L50.9,27.5z M50.4,8C51,6.6,51.5,6.5,52,7.5c0.8,1.3,1.9,3.5,3.4,6.6c0.6,2,0.3,3-0.9,2.8h-6.8c-1.1,0.1-2.2,0.2-3.2,0.4
	c-0.7,0.2-1.1-0.3-1.4-1.4l-0.3-1.3c-0.3-1.3-0.1-1.8,0.5-1.6c1.4,0.4,2.9,0.6,4.4,0.7c0.4,0,0.9-0.6,1.4-1.9
	C49.4,10.5,49.9,9.3,50.4,8L50.4,8z M63.7,1.9c0-1.3,0.3-1.9,0.9-1.8c1.9,0.4,3.6,1,5,1.7c0.6,0.2,1,0.8,1.2,1.9
	c-0.1,0.9-0.4,1.4-1,1.5c-0.3-0.1-0.7,0.5-1.2,1.6c-0.8,1.4-1.5,2.6-2.3,3.5c-0.5,0.6-0.5,0.9,0,0.9h5.4c0.4,0,0.9-0.5,1.5-1.6
	c0.7-1.2,1.2-2.1,1.7-2.8c0.3-0.2,0.5-0.1,0.8,0.4c1.1,1.3,2.1,2.9,3.1,4.7c0.4,1.3,0.3,2.4-0.3,3.2c-0.2,0.3-0.4,0.7-0.6,1.1
	c-0.1,0.4-0.2,1.2-0.2,2.2v16.6l0.1,9.7c0.2,1.5,0,2.8-0.7,3.7c-1,0.7-2,1-3,0.8c-0.4-0.1-0.4,0,0,0.2c0.7,0.4,1.2,0.7,1.5,1
	c0.5,0.6,0.8,1,0.8,1.3c0,0.6-0.1,1-0.5,1.2c-0.4,0.1-0.6,0.4-0.7,1.1l-0.6,2.9c-0.2,1-0.2,1.4,0,1.2c0.2-0.1,0.5,0.3,1.1,1.2
	c0.8,1.6,1.4,3.2,1.8,5c0.2,1.1,0.3,1,0.4-0.4l0.2-2.8c0.1-1.4,0.3-2,0.6-1.8c0.4,0,0.6,0.6,0.6,1.9v6.2c0,0.9,0,1.8,0,2.8
	c-0.1,1.1,0.2,2.5,0.8,4.1c0.3,0.7,0.6,1.3,0.6,1.8c0.4,2.7,0.1,5.1-1.2,7.3c-1.2,1.9-3.1,3-5.6,3.2h-3c-1.5-0.1-2.9-0.8-4.2-1.9
	c-1.2-1.5-1.9-4.4-2.1-8.8V58.4c0-1,0-1.5-0.1-1.5l-0.2,0.2c-0.1,0.2-0.1,0.9-0.3,2.1C62.9,71.3,59.5,80,54,85.2
	c-2,1.9-4.2,3.1-6.6,3.7c-0.6,0.1-1-0.2-1.2-0.7c-0.3-0.6-0.1-1.2,0.5-1.6c2.6-2.4,4.9-5.3,6.7-8.8c1.2-2.5,2.2-5,3-7.5
	c1.5-5.1,2.4-11,2.6-17.7c0.1-1.2,0.4-1.7,0.9-1.5l4.2,1.7c0.4,0.2,0.7-0.2,0.7-1.2V48c0-1-0.2-1.5-0.7-1.5h-1.8
	c-0.5,0-0.7,0.2-0.7,0.7c0,0.7-0.2,1.2-0.4,1.6c-1.3,1.2-2.7,1.5-4.2,1c-0.6-0.8-0.8-1.8-0.6-3.1c0-2.8,0-5.6,0-8.4v-20
	c0-3.2-0.1-6-0.2-8.6c-0.1-1.3,0.2-1.7,0.7-1.4c1.5,0.8,2.9,1.7,4.2,2.8c0.3,0.2,0.8,0.4,1.3,0.4c0.6,0,0.9-0.6,1-1.8
	C63.7,7.2,63.7,4.7,63.7,1.9L63.7,1.9z M62.3,14.5c-0.5,0-0.7,0.5-0.7,1.5v9.1c0,1,0.2,1.5,0.7,1.5h1.3c0.5,0,0.7-0.5,0.7-1.5V16
	c0-1-0.2-1.5-0.7-1.5C63.6,14.5,62.3,14.5,62.3,14.5z M62.3,29.7c-0.4,0-0.6,0.5-0.6,1.5V42c0,1,0.2,1.5,0.7,1.5h1.3
	c0.5,0,0.7-0.5,0.7-1.5V31.3c0-1-0.2-1.5-0.7-1.5C63.6,29.7,62.3,29.7,62.3,29.7z M69.9,14.5c-0.4,0-0.7,0.5-0.7,1.5v9.1
	c0,1,0.2,1.5,0.7,1.5h1.8c0.4,0,0.7-0.5,0.7-1.5V16c0-1-0.2-1.5-0.6-1.5H69.9z M69.9,29.7c-0.4,0-0.6,0.5-0.6,1.5V42
	c0,1,0.2,1.5,0.7,1.5h1.8c0.4,0,0.7-0.5,0.7-1.5V31.3c0-1-0.2-1.5-0.6-1.5C71.7,29.7,69.9,29.7,69.9,29.7z M70.6,46.4
	c-0.4,0-0.7,0.5-0.7,1.5v14c0,1.1,0.2,1.7,0.6,1.8c0.4,0.2,0.6-0.2,0.6-1.3l0.2-4.6V52l-0.1-1.7c-0.1-1.2,0.3-1.6,0.9-1.3l0.3,0.1
	c0.4,0.1,0.6,0.1,0.4-0.2c-0.3-0.4-0.5-1-0.6-1.5c0-0.6-0.2-1-0.6-1L70.6,46.4L70.6,46.4z M70.1,69.1c-0.1-1-0.2-1-0.2-0.1v4.4
	c0,1.3,0.3,2,0.8,2.3c1.8,0.8,3.5,0.7,5.2-0.5c0.6-0.9,0.7-1.2,0.2-1c-0.5,0-0.8-0.1-1.1-0.4c-0.5-0.8-0.7-1.7-0.5-2.7
	c0-0.2,0-0.6,0-0.9c0.1-1-0.1-1.1-0.6-0.3c-0.5,0.9-1,1.8-1.6,2.7c-0.3,0.5-0.5,1.1-0.6,1.7c0,0.7-0.1,1.2-0.4,1.4
	c-0.2,0.2-0.4,0-0.6-0.6C70.6,73.9,70.4,71.8,70.1,69.1L70.1,69.1z M74.5,60.3c-0.2-0.9-0.4-0.8-0.7,0.2L73,62.9
	c-0.5,1.3-0.4,2,0.1,2.2l0.9,0.2c0.5,0.1,0.7-0.4,0.7-1.4C74.8,62.8,74.7,61.6,74.5,60.3L74.5,60.3z"/>
<path class="st0" d="M89.2,2c-0.1-1.4,0.1-2,0.6-2c2,0.4,3.8,1,5.6,1.8c0.7,0.8,1,1.3,1,1.5c0.1,0.8-0.1,1.3-0.6,1.7
	C95.2,5.8,95,6.7,95,7.7v5.2c0,1.1,0.1,1,0.4-0.4c0.2-1.1,0.4-2.1,0.7-3.2c0.4-1.2,0.7-1.8,0.7-1.8c0.3,0,0.7,0.5,0.9,1.4
	c0.3,1.3,0.7,2.5,1,3.8c0.3,1,0.5,0.9,0.8-0.4c0.3-1.6,0.5-3.5,0.8-5.6c0.1-1.3,0.4-1.6,1-0.9c1.6,1.8,3.1,3.8,4.7,5.9
	c0.4,0.7,0.7,0.5,0.6-0.5c-0.1-2.3-0.1-4.7-0.3-7.1c-0.1-1.3,0.1-1.9,0.7-1.6c1.8,1,3.6,2.1,5.4,3.3h1.7c0.4,0,0.9-0.5,1.5-1.5
	c0.6-1.1,1.1-2,1.7-2.9c0.3-0.5,0.6-0.6,0.8-0.4c1.2,1.4,2.3,3.1,3.4,5.2c0.7,1.2,1,2.3,1,3.4c0,0.9-0.3,1.4-0.8,1.6
	c-0.5,0.3-0.8,1.1-1,2.4c-1.2,7.6-2.9,14.7-5.2,21.4c-0.4,1.3-0.4,2.2,0,2.9c0.9,1.3,2.1,3.7,3.4,7.4c2.9,8.3,3.8,16,2.8,23.3
	c-0.2,1.6-0.5,2.8-0.8,3.8c-1.4,4.8-3.1,7.3-5.2,7.7c-0.4,0.1-0.8-0.5-1-1.9c-0.1-1-0.2-2.3-0.2-3.8c-0.1-1.3-0.3-2.5-0.6-3.7
	c-0.3-0.6-0.6-1.2-1-1.8c-0.4-0.2-0.6-0.7-0.5-1.6c0.1-0.8,0.4-1.2,1-1.2h1.4c0.5-0.2,0.9-0.8,1.2-1.9c0.7-3.2,0.8-6.9,0.5-11.1
	c-0.2-5-1.1-9.7-2.8-14.1c-0.4-1.1-0.6-2.4-0.6-3.7c0.8-7.6,1.4-15.9,1.7-24.6c0-1.1-0.2-1.6-0.6-1.6h-1.4c-0.4,0-0.7,0.5-0.7,1.5
	v60.8l0.1,13.3c0,1.1,0,1.9-0.2,2.6c-0.4,0.9-1.1,1.5-2.1,1.6c-0.7,0.2-1.4,0.2-2.2,0.1c-0.6-0.2-1-0.8-1.2-1.6c0-1.8,0-3.5,0-5.3
	c0-3.2,0-6.5,0.1-9.8V38c0-1-0.2-1.5-0.7-1.5h-6.6c-0.4,0-0.9,0.6-1.4,1.9c-1,2.6-2.2,4.9-3.5,6.8c-0.5,0.8-0.5,1.2,0,1.2h3.2
	c0.4,0,0.9-0.6,1.5-1.8c0.3-0.6,0.6-1.1,0.8-1.6c0.6-1,1.2-1.4,1.7-1c0.5,0.4,1.4,1.6,2.5,3.5c1.4,2.2,1.6,3.9,0.5,5.1
	c-0.4,1-0.7,1.9-0.7,2.9v16.7l0.1,14.4c0.2,1.8-0.3,3-1.5,3.6c-0.8,0.4-1.8,0.6-2.8,0.5c-1-0.1-1.4-1.4-1.3-3.8v-1.7
	c0-1.1-0.2-1.6-0.7-1.6h-4.5c-0.5,0-0.7,0.5-0.7,1.5v1.2c0.2,2.3-0.3,3.7-1.5,4.2c-0.8,0.4-1.8,0.6-2.8,0.4
	c-1.1-0.4-1.5-1.5-1.2-3.4c0-4.9,0.1-9.7,0.2-14.6V56.3c0-1-0.3-1.2-0.8-0.7c-0.8,0.9-1.6,1.7-2.6,2.5c-0.7,0.6-1,0.6-1.2,0
	c-0.2-0.7-0.1-1.5,0.5-2.4c3.2-4.7,6.2-10.6,9.3-17.8c0.4-1,0.4-1.5-0.1-1.5h-4.8c-1,0.1-1.9,0.2-2.9,0.5c-0.7,0.2-1.1-0.3-1.4-1.4
	l-0.3-1.5c-0.3-1.2-0.1-1.7,0.6-1.5c1.6,0.4,3.4,0.7,5.3,0.7c0.4,0,0.7-0.5,0.7-1.5V20.1c0-1-0.2-1.5-0.7-1.5
	c-1.2,0-2.2,0.2-3.2,0.5c-0.5,0.1-0.9-0.5-1.2-1.9l-0.2-0.9c-0.3-1.2-0.1-1.7,0.6-1.5c1.2,0.3,2.5,0.5,4,0.6c0.4,0,0.7-0.5,0.7-1.5
	V9C89.4,6.7,89.3,4.3,89.2,2L89.2,2z M93.2,49.6c-0.4,0-0.7,0.5-0.7,1.5v9c0,1,0.2,1.5,0.7,1.5h4.6c0.4,0,0.7-0.5,0.7-1.5v-8.9
	c0-1.1-0.2-1.6-0.7-1.6L93.2,49.6L93.2,49.6z M93.2,65c-0.4,0-0.7,0.5-0.7,1.5V77c0,1,0.2,1.5,0.7,1.5h4.6c0.4,0,0.7-0.5,0.7-1.4
	V66.5c0-1-0.2-1.5-0.7-1.5H93.2z M95.6,18.8c-0.4,0-0.7,0.5-0.7,1.5v9.3c0,1,0.2,0.9,0.6-0.4c1-3.2,1.7-6.1,2.3-8.8
	c0.2-1.1,0-1.6-0.4-1.6H95.6L95.6,18.8z M106.6,16.2c0-1.1,0-1.5-0.1-1.3c-0.2,0.4-0.6,0.6-1.2,0.7c-0.4,0.1-0.8,0.8-1.1,2.1
	c-0.8,4.4-2.1,8.9-3.7,13.5c-0.4,1.3-0.3,1.9,0.1,1.9c0.5,0,1-0.6,1.3-1.9c0.4-1.5,0.8-3.1,1.2-4.6c0.5-1.3,0.8-2,0.9-2
	c0.3,0.1,0.6,0.8,0.9,1.9c0.3,1,0.6,1.9,0.9,2.8c0.4,1.3,0.6,1.4,0.6,0.4L106.6,16.2L106.6,16.2z"/>
<path class="st0" d="M130.6,34.2c0-1.6,0.2-2.3,0.6-2.3c0.4-0.1,0.7,0.6,0.9,2.1c0.6,5.3,0.8,10.9,0.7,16.9
	c-0.1,4.6-0.5,8.4-1.3,11.3c-0.8,3.1-1.8,5-3,5.8c-1.3,0.6-2.4,0.3-3.4-0.8c-0.5-0.8-0.8-2-1-3.6c-0.4-3.2,0.2-6.2,1.7-9.2
	c1.3-2.3,2.3-5,3.1-8C129.8,43,130.3,38.9,130.6,34.2L130.6,34.2z M135.4,19.1c-0.1-1.4,0.2-2,0.8-1.8c3,0.8,5.1,1.6,6.3,2.3
	c1.2,0.8,1.3,2,0.4,3.6c-0.4,0.3-0.7,0.6-0.9,1c-0.3,0.4-0.4,1.1-0.4,2v43.6c0.1,1.1,0.3,2,0.7,2.7c0.6,0.6,1.8,0.9,3.4,1
	c2.3,0.2,4.2-0.3,5.8-1.5c0.6-0.8,1-1.6,1.1-2.5c0.4-3.5,0.8-8.5,1.3-15c0.1-1.5,0.4-2.2,0.8-2.3c0.4,0.2,0.7,0.9,0.7,2.1
	c0,4.9,0.1,9.1,0.2,12.6c-0.1,1.7,0.4,3,1.4,4c0.7,0.8,1.1,1.8,1.2,3.1c0.2,1.9,0.1,3.5-0.1,4.7c-0.2,1.5-0.6,2.8-1.2,3.7
	c-0.7,1.3-1.9,2.2-3.4,2.7c-1.5,0.4-3,0.7-4.4,0.8h-4.2c-1.7-0.1-3.5-0.5-5.3-1.2c-0.6-0.2-1.2-0.7-1.7-1.2
	c-0.7-1.1-1.2-2.2-1.5-3.3c-0.4-2.2-0.7-4.4-0.7-6.7V25.9L135.4,19.1L135.4,19.1z M138.7,1.1c0.1-0.8,0.5-1,1-0.9
	c2.2,0.2,4.5,1.3,6.8,3.2c3.1,2.5,4.7,6.6,4.7,12.4c-0.2,3.2-0.9,5.5-2.1,7c-2.1,2.3-3.7,0.4-4.6-5.8c-0.9-6.1-2.6-10.8-5.1-14.1
	C138.7,2.4,138.5,1.8,138.7,1.1L138.7,1.1z M154.2,27.9c0.3-0.8,0.7-0.8,1.2,0c2,2.6,4,6.3,5.8,11c2.4,6.1,3.2,11.8,2.5,17
	c-0.8,4.4-2.3,6.2-4.5,5.2c-1-0.9-1.6-2.8-1.8-5.8c-0.1-1.3-0.2-2.9-0.2-4.7c0-7.5-0.9-14.1-2.7-19.9
	C154.1,29.4,154,28.5,154.2,27.9L154.2,27.9z"/>
<g>
	<path class="st0" d="M32.1,0.4c0.2,0,0.5,0.2,0.9,0.6c1.4,1.5,2.6,3.3,3.8,5.5c0.3,0.5,0.3,1.2,0,2c-0.2,0.3-0.5,0.5-1.1,0.5H23.9
		c-0.5,0-0.7,0.5-0.7,1.5v1.4c0,1,0.2,1.5,0.7,1.5H32c0.5,0,0.8-0.2,1.1-0.8c0.4-0.8,0.8-1.4,1.2-2.1c0.6-0.8,1.2-1,1.7-0.5
		c1,1.3,2.1,3.1,3.4,5.5c0.3,0.6,0.6,1.3,0.7,2.1c-0.1,1.4-0.5,2-1.3,1.8c-0.3-0.1-0.5,0.2-0.9,0.7c-1,1.6-2.2,3.1-3.4,4.5
		c-0.3,0.3-0.8,0.5-1.3,0.5h-6c-0.5,0.1-1.1,0.2-1.7,0.3c-0.6,0.2-1-0.3-1.3-1.6L24.3,23c-0.3-1.2-0.1-1.7,0.6-1.5
		c1.1,0.3,2.4,0.5,3.7,0.6c0.5,0,0.9-0.5,1.3-1.5c0.6-1.5,1.1-2.4,1.5-2.6c0.3,0.1,0.6,0.4,0.9,1.1c0.5,0.9,0.7,0.8,0.7-0.5
		c0-1.3-0.3-1.9-0.7-1.9h-8.3c-0.5,0-0.7,0.5-0.7,1.5v7.1l0.2,6.5c0.1,1-0.1,1.8-0.4,2.5c-0.2,0.3-0.2,0.5,0,0.5
		c0.9,0.6,1.8,1.7,2.9,3.4c0.6,0.8,0.7,1.6,0.3,2.6c-0.3,0.6-0.6,1.2-0.9,1.9c0,2.8,0,6.3,0.2,10.6c0,1,0,1.7-0.1,2
		c-0.1,0.8-0.4,1.3-0.9,1.7c-1,0.7-2,0.8-3.1,0.4c-0.4-0.2-0.6-0.9-0.7-2c0-0.4-0.2-0.7-0.7-0.7c-0.5,0-0.8,0.3-0.9,0.8
		c-0.1,0.5-0.2,1-0.3,1.5c-1.1,1.1-2.3,1.3-3.7,0.7c-0.3-0.3-0.5-0.8-0.5-1.6l0.1-6.2v-7.5c0-1.6-0.1-3.2-0.2-4.8
		c-0.1-1.4,0.1-2.1,0.7-1.9c1,0.6,2.2,1.3,3.3,2.1c0.5,0.5,0.9,0.7,1.4,0.6c0.5,0,0.9-0.5,1.3-1.5l0.4-0.8c0.1-0.2,0.2-0.5,0.4-0.8
		c0-0.1-0.2-0.1-0.8,0.1c-1,0.3-1.9,0.3-2.9,0.1c-0.7-0.3-1.1-1.1-1.1-2.3l0.2-7.9v-7.1c0-1-0.2-1.5-0.7-1.5H7
		c-0.5,0-0.6,0.6-0.5,1.9l0.1,1.3c0,1.1,0.3,1.7,0.9,1.8c1,0.3,2.1,0.5,3.1,0.5c0.5,0,0.9-0.6,1.4-1.8l0.6-1.4
		c0.5-1.4,1.1-1.4,1.7,0c0.7,1.1,1.4,2.4,2.1,3.9c0.3,0.6,0.4,1.2,0,1.8c-0.2,0.3-0.5,0.4-1.1,0.4h-5.1c-0.7,0.1-1.4,0.2-2.2,0.4
		c-0.6,0.2-0.9-0.1-1.1-0.8c-0.2-0.8-0.4-0.6-0.5,0.7C6,28.3,5.2,30,4,30.4c-0.8,0.3-1.5,0.2-2.1-0.2c-0.7-0.2-1.2-1.1-1.6-2.4
		c-0.7-3.6-0.3-6.7,1.3-9.2c1.6-1.9,2.5-4.3,2.7-7.3c0-1.2,0.2-1.8,0.6-2C5.2,9.1,5.5,9.7,5.7,11l0.1,0.8c0.2,1,0.5,1.5,0.9,1.5h10
		c0.5,0,0.7-0.5,0.7-1.5v-1.4c0-1-0.3-1.5-0.9-1.5l-1.8,0.1h-4.1C9.5,8.9,8.4,9,7.2,9.3C6.5,9.5,6.1,9,5.8,7.9L5.5,6.3
		C5.2,5.1,5.4,4.6,6,4.8c1.6,0.4,3.5,0.7,5.7,0.8H28c0.5,0,0.8-0.2,1.1-0.8C30.5,2.4,31.5,0.9,32.1,0.4z M34.5,34.9
		c0.3-0.1,0.7,0.2,1.2,0.8c1.2,1.3,2,2.6,2.4,3.8c0.1,0.6-0.1,1.3-0.5,2c-0.4,0.8-0.6,1.7-0.6,2.7c0,2.9,0.1,6,0.2,9.1
		c-0.1,1.4-0.4,2.3-1.1,2.7c-0.3,0.1-0.2,0.5,0.3,1.2c0.5,0.8,1.1,1.6,1.7,2.6c0.7,0.9,0.8,2,0.5,3.2c-0.1,0.2-0.4,0.3-1,0.3h-8.4
		c-0.4,0-0.4,0.1,0.2,0.4c1.6,0.6,2.9,1.2,3.8,1.8c0.8,0.4,1,1.2,0.7,2.3c-0.1,0.3-0.3,0.5-0.7,0.7c-0.5,0.1-0.7,0.4-0.9,0.8
		c-0.1,0.3,0.1,0.5,0.7,0.5c1.6,0,2.8,0.7,3.7,2.2c0.7,1.3,1,3,0.8,5.1c-0.2,1.1,0,2.1,0.5,3l1.4,2.4c0.7,1.2,0.9,2.3,0.6,3.2
		c-0.2,0.4-0.6,0.6-1.1,0.5H6.1c-1.7,0.1-3,0.3-3.9,0.5c-0.6,0.1-1-0.5-1.3-1.8l-0.2-0.9c-0.3-1.3-0.1-1.9,0.4-1.7
		c0.3,0,0.7,0.1,1,0.2c0.4,0.1,0.6-0.2,0.5-0.8c-0.2-0.6,0.1-1.4,0.7-2.6c1.8-4.1,3-8.7,3.6-13.8c0.1-1.1-0.1-1.6-0.7-1.6l-1.6,0.3
		c-0.6,0.1-1-0.4-1.3-1.6L3,60.9c-0.3-1.2-0.1-1.7,0.4-1.6C5,59.8,6.7,60,8.5,60h22.2c0.4,0,0.9-0.5,1.3-1.4l0.3-0.6
		c0.5-1.2,0.7-1.8,0.6-2c-0.1-0.3-0.2-0.6-0.2-0.9c0-0.2-0.3-0.3-0.8-0.3c-0.5,0-0.8,0.2-0.9,0.7c0,0.9-0.2,1.5-0.6,2
		c-1,0.8-2.1,1-3.3,0.7c-0.5-0.4-0.7-1.1-0.7-2.3c0-1.4,0-2.9,0.1-4.5v-8.6c0-1.8-0.1-3.6-0.2-5.4c-0.1-1.3,0.2-1.8,0.7-1.5
		c1.2,0.6,2.5,1.4,4,2.5h0.7c0.5,0,0.9-0.5,1.4-1.5l0.8-1.4C34.1,35.2,34.3,35,34.5,34.9z M10.3,35.5c0.5-0.8,1-0.8,1.4-0.3
		c0.5,0.5,1.1,1.2,1.7,2c1.3,1.5,1.5,3,0.6,4.5c-0.3,0.7-0.4,1.5-0.4,2.5V49c0,1.3,0.1,2.5,0.1,3.9c0.3,2.4-0.2,3.9-1.4,4.4
		c-0.6,0.4-1.4,0.4-2.4,0.2c-0.4-0.1-0.7-0.6-0.8-1.7c0-0.7-0.3-1-0.8-1c-0.5,0-0.7,0.2-0.8,0.7c0.1,1-0.3,1.8-1,2.3
		c-0.8,0.5-1.8,0.6-2.8,0.2C3.2,57.6,3,56.9,3,55.9c0-1.9,0.1-3.8,0.1-5.8v-7.2c0-1.8-0.1-3.6-0.2-5.5c-0.1-1.3,0.2-1.8,0.8-1.6
		c0.9,0.5,2,1.2,3.1,2c0.5,0.6,1,0.8,1.4,0.7c0.4,0,0.9-0.5,1.3-1.5l0.4-0.8C10.1,35.9,10.2,35.7,10.3,35.5z M9.1,63.4
		c-0.5,0-0.4,0.2,0,0.5c2,0.6,3.6,1.3,4.6,2.3c0.5,0.5,0.5,1.2,0,2.1c-0.2,0.3-0.4,0.5-0.7,0.5c-0.4,0.3-0.7,0.6-0.8,0.9
		c-0.1,0.2,0.2,0.3,0.7,0.2c1.3,0.1,2.4,0.8,3.2,2.1c1,2,1.3,4.4,0.9,7.3c-0.1,0.6-0.3,1.2-0.6,1.9c-0.8,1.3-1.7,1.8-2.9,1.3
		c-0.9-0.2-1.4-1.3-1.5-3.4c0.1-2,0-3.8-0.2-5.3c-0.1-0.6-0.2-1.1-0.5-1.3c-0.1,0-0.3,0.6-0.8,1.8c-0.5,1.4-1.1,2.6-1.7,3.5
		c-1.6,2.3-3.4,3.9-5.3,4.6c-0.4,0.1-0.3,0.2,0.3,0.4l3.1,0.2h9.7c0.5,0,0.7-0.5,0.7-1.5V64.9c0-1-0.2-1.5-0.7-1.5H9.1z M11.7,28.3
		c0.8-2.1,1.4-2.9,1.8-2.6c0.7,1,1.6,2.4,2.5,4.3c0.6,0.9,0.7,1.9,0.3,2.8c-0.1,0.1-0.4,0.2-1,0.2H8.9c-0.5,0.1-1.1,0.2-1.6,0.4
		c-0.6,0.2-1-0.4-1.3-1.8L5.9,31c-0.3-1.2-0.1-1.7,0.5-1.6c1.2,0.4,2.6,0.6,4,0.7C10.8,30,11.3,29.4,11.7,28.3z M8.4,41.3
		c-0.5,0-0.8,0.5-0.8,1.5v7.5c0,1,0.2,1.5,0.7,1.5c0.5,0,0.8-0.5,0.8-1.5v-7.4C9.1,41.8,8.9,41.3,8.4,41.3z M20,41.3
		c-0.6,0-0.9,0.5-0.9,1.5v7.5c0,1,0.3,1.5,0.8,1.5c0.6,0,0.9-0.5,0.9-1.5v-7.4C20.8,41.8,20.6,41.3,20,41.3z M24.1,63.4
		c-0.5,0-0.7,0.5-0.7,1.5v13.4c0,1,0.2,0.9,0.7-0.3c1.6-4.6,2.5-9,2.8-13.2c0.1-1-0.1-1.5-0.6-1.5H24.1z M31.2,72.3
		c-1.2,3.6-2.6,6.2-4.1,7.6c-0.8,0.9-1.8,1.7-3,2.3c-0.5,0.2-0.7,0.3-0.7,0.5c0,0.1,0.3,0.2,0.7,0.2H32c0.5,0,0.8-0.3,1-0.8
		c0.2-0.4,0.1-0.8-0.2-1.2c-0.7-1.3-1-3-0.9-5.2C31.9,74,31.6,72.9,31.2,72.3z M31.5,26.4c0.4-1.1,0.9-1.1,1.4-0.1
		c0.7,1,1.5,2.5,2.3,4.4c0.2,0.4,0.2,1,0.1,1.7c-0.2,0.6-0.6,0.8-1.2,0.6h-6.8c-0.5,0.1-1.1,0.2-1.7,0.4c-0.6,0.2-1-0.4-1.3-1.7
		l-0.2-0.8c-0.3-1.2-0.1-1.7,0.6-1.4c1.3,0.4,2.8,0.6,4.5,0.6c0.5,0,0.9-0.6,1.4-1.9L31.5,26.4z M31.8,41.3c-0.6,0-0.9,0.5-0.9,1.5
		v7.5c0,1,0.3,1.5,0.8,1.5c0.6,0,0.9-0.5,0.9-1.5v-7.4C32.6,41.8,32.4,41.3,31.8,41.3z"/>
	<path class="st0" d="M50.9,27.6c0.5-1.8,1-2.5,1.4-2.2c1,1.4,2.2,3.9,3.7,7.4c0.5,1.1,0.6,2.1,0.2,3.1c-0.1,0.1-0.4,0.2-1,0.2h-2.7
		c-0.4,0-0.7,0.6-0.8,1.9c-0.7,7.9-2.3,14.7-4.7,20.5c-0.5,1.1-0.6,1.6,0,1.5c1.4-0.3,3-0.9,4.6-1.8c0.5-0.2,0.6-1,0.5-2.3
		c-0.3-1.6-0.6-3.5-1.1-5.5c-0.3-1.2-0.4-2,0-2.4c0.2-0.4,0.7-0.2,1.4,0.4c2,1.9,3.6,4.9,4.8,8.8c0.7,2.6,0.8,5.2,0.4,7.9
		c-0.4,3-1.3,4.6-2.8,4.7c-0.5,0.1-0.9,0-1.1-0.2c-0.8-0.5-1.2-1.8-1.1-3.9c0.1-0.6,0.1-1.7,0-3.1c0-1.1-0.2-1.1-0.7-0.1
		c-2,3.9-4.1,6.8-6.2,8.8c-0.5,0.4-0.7,1.1-0.8,2.1c0,1-0.1,1.8-0.5,2.3c-0.4,0.4-0.8-0.2-1-1.6c-0.7-3.8-1.4-7.8-2-11.9
		c-0.2-1.6-0.1-2.4,0.4-2.3h2c0.5,0,0.8-0.6,0.9-1.8c0.8-6.8,1.1-13.7,1.1-20.7c0-1-0.2-1.5-0.7-1.5c-0.9,0.1-1.9,0.3-3,0.7
		c-0.3-0.9-0.5-1.8-0.7-2.6c-0.3-1.3-0.1-1.9,0.4-1.8c1.8,0.5,4,0.8,6.4,0.8c0.5,0.1,0.9-0.5,1.3-1.8C50,30.1,50.4,28.9,50.9,27.6z
		 M50.4,8.2C51,6.9,51.5,6.8,52,7.8c0.8,1.3,1.9,3.4,3.4,6.6c0.6,2,0.3,2.9-0.9,2.8h-6.9c-1.1,0.1-2.2,0.2-3.2,0.4
		c-0.7,0.2-1.1-0.3-1.4-1.4l-0.3-1.3c-0.3-1.3-0.1-1.8,0.5-1.6c1.4,0.4,2.9,0.6,4.4,0.7c0.4,0,0.9-0.6,1.4-1.9
		C49.4,10.8,49.9,9.6,50.4,8.2z M63.7,2.2c0-1.3,0.3-1.9,0.9-1.8c1.9,0.4,3.6,0.9,5,1.7c0.6,0.2,1,0.8,1.1,1.9
		c-0.1,0.9-0.4,1.4-1,1.5c-0.3-0.1-0.7,0.5-1.2,1.6c-0.8,1.4-1.5,2.5-2.3,3.5c-0.5,0.6-0.5,0.9,0,0.9h5.4c0.4,0,0.9-0.5,1.5-1.6
		c0.7-1.2,1.2-2.1,1.7-2.7C75,7,75.3,7.1,75.6,7.6c1.1,1.3,2.1,2.9,3.1,4.7c0.4,1.3,0.3,2.4-0.3,3.2c-0.2,0.3-0.4,0.7-0.6,1.1
		c-0.1,0.4-0.2,1.2-0.2,2.2v16.4l0.1,9.6c0.2,1.5,0,2.7-0.7,3.7c-1,0.7-2,1-3,0.8c-0.5-0.1-0.4,0,0,0.2c0.7,0.4,1.2,0.7,1.5,0.9
		c0.5,0.6,0.8,1,0.8,1.3c0,0.6-0.1,1-0.5,1.2c-0.4,0.1-0.6,0.4-0.7,1.1L74.6,57c-0.2,1-0.2,1.4,0,1.2c0.2-0.1,0.5,0.3,1.1,1.2
		c0.9,1.6,1.4,3.2,1.8,5c0.2,1.1,0.3,1,0.4-0.4l0.2-2.7c0.1-1.4,0.3-2,0.6-1.8c0.4,0,0.6,0.6,0.6,1.9v6.1c0,0.9,0,1.8,0,2.8
		c-0.1,1.1,0.2,2.5,0.9,4c0.3,0.7,0.6,1.3,0.6,1.8c0.5,2.7,0.1,5.1-1.1,7.2c-1.2,1.9-3.1,2.9-5.6,3.2h-3c-1.5-0.1-2.9-0.8-4.2-1.9
		c-1.2-1.5-1.9-4.4-2.1-8.7V58.3c0-1,0-1.5-0.1-1.5L64.5,57c-0.1,0.2-0.1,0.9-0.3,2.1C63,71.1,59.5,79.7,54,84.9
		c-2,1.9-4.2,3.1-6.6,3.7c-0.6,0.1-1-0.2-1.2-0.7c-0.3-0.6-0.1-1.2,0.5-1.6c2.6-2.4,4.9-5.3,6.7-8.7c1.2-2.4,2.2-4.9,3-7.4
		c1.5-5.1,2.4-10.9,2.6-17.6c0.1-1.2,0.4-1.7,0.9-1.5l4.2,1.7c0.5,0.2,0.7-0.2,0.7-1.2V48c0-1-0.2-1.5-0.7-1.5h-1.8
		c-0.5,0-0.7,0.2-0.7,0.7c0,0.7-0.2,1.2-0.4,1.6c-1.3,1.2-2.7,1.5-4.2,0.9c-0.6-0.8-0.8-1.8-0.6-3.1c0-2.8,0-5.5,0-8.4V18.4
		c0-3.1-0.1-6-0.2-8.6c-0.1-1.3,0.2-1.7,0.7-1.4c1.5,0.8,2.9,1.7,4.2,2.7c0.3,0.3,0.8,0.4,1.3,0.4c0.6,0,0.9-0.6,1-1.8
		C63.7,7.5,63.8,5,63.7,2.2z M62.3,14.7c-0.5,0-0.7,0.5-0.7,1.5v9c0,1,0.2,1.5,0.7,1.5h1.3c0.5,0,0.7-0.5,0.7-1.5v-9
		c0-1-0.2-1.5-0.7-1.5H62.3z M62.3,29.9c-0.4,0-0.6,0.5-0.6,1.5V42c0,1,0.2,1.5,0.7,1.5h1.3c0.5,0,0.7-0.5,0.7-1.5V31.4
		c0-1-0.2-1.5-0.7-1.5H62.3z M69.9,14.7c-0.5,0-0.7,0.5-0.7,1.5v9c0,1,0.2,1.5,0.7,1.5h1.8c0.5,0,0.7-0.5,0.7-1.5v-9
		c0-1-0.2-1.5-0.6-1.5H69.9z M69.9,29.9c-0.4,0-0.6,0.5-0.6,1.5V42c0,1,0.2,1.5,0.7,1.5h1.8c0.5,0,0.7-0.5,0.7-1.5V31.4
		c0-1-0.2-1.5-0.6-1.5H69.9z M70.6,46.4c-0.5,0-0.7,0.5-0.7,1.5v13.9c0,1.1,0.2,1.7,0.6,1.8c0.4,0.2,0.6-0.2,0.6-1.3l0.2-4.6v-5.7
		l-0.1-1.7c-0.1-1.2,0.3-1.6,0.9-1.3l0.3,0.1c0.5,0.1,0.6,0.1,0.4-0.2c-0.3-0.4-0.5-0.9-0.6-1.5c0-0.6-0.2-0.9-0.6-0.9H70.6z
		 M70.1,68.9c-0.1-1-0.2-1-0.2-0.1v4.4c0,1.3,0.3,2,0.8,2.3c1.8,0.8,3.5,0.7,5.2-0.5c0.6-0.9,0.7-1.2,0.2-1c-0.5,0-0.9-0.1-1.1-0.4
		c-0.5-0.8-0.7-1.7-0.5-2.6c0-0.2,0-0.6,0-0.9c0.1-1-0.1-1.1-0.6-0.3c-0.5,0.9-1,1.8-1.6,2.6c-0.3,0.5-0.5,1.1-0.6,1.7
		c0,0.7-0.1,1.2-0.4,1.4c-0.2,0.2-0.4,0-0.6-0.6C70.6,73.6,70.3,71.6,70.1,68.9z M74.5,60.2c-0.2-0.9-0.4-0.8-0.7,0.2L73,62.7
		c-0.5,1.3-0.4,2,0.1,2.2l0.9,0.2c0.5,0.1,0.7-0.4,0.7-1.4C74.8,62.6,74.7,61.5,74.5,60.2z"/>
	<path class="st0" d="M130.6,34.3c0-1.6,0.2-2.3,0.6-2.3c0.4-0.1,0.7,0.6,0.9,2.1c0.6,5.3,0.8,10.8,0.7,16.7
		c-0.1,4.6-0.5,8.3-1.3,11.2c-0.8,3.1-1.8,5-3,5.7c-1.3,0.6-2.4,0.3-3.4-0.8c-0.5-0.8-0.8-2-1-3.6c-0.4-3.1,0.2-6.2,1.7-9.1
		c1.3-2.3,2.3-4.9,3.1-7.9C129.8,43,130.3,39,130.6,34.3z M135.4,19.3c-0.1-1.4,0.2-2,0.8-1.8c3,0.8,5.1,1.6,6.3,2.3
		c1.2,0.8,1.3,2,0.4,3.6c-0.4,0.3-0.7,0.6-0.9,0.9c-0.3,0.4-0.4,1.1-0.4,2v43.2c0.1,1.1,0.3,2,0.7,2.6c0.6,0.6,1.8,0.9,3.4,1
		c2.3,0.2,4.2-0.3,5.8-1.5c0.7-0.8,1-1.6,1.1-2.4c0.4-3.5,0.8-8.5,1.3-14.8c0.1-1.4,0.4-2.2,0.8-2.3c0.5,0.2,0.7,0.9,0.7,2.1
		c0,4.8,0.1,9,0.2,12.5c-0.1,1.7,0.4,3,1.4,3.9c0.7,0.8,1.1,1.8,1.2,3.1c0.2,1.9,0.1,3.4-0.1,4.7c-0.2,1.5-0.6,2.7-1.2,3.7
		c-0.7,1.3-1.9,2.2-3.4,2.6c-1.5,0.4-3,0.7-4.4,0.8h-4.2c-1.7-0.1-3.5-0.5-5.3-1.2c-0.7-0.3-1.2-0.7-1.7-1.2
		c-0.7-1.1-1.2-2.2-1.5-3.3c-0.5-2.1-0.7-4.4-0.7-6.7V26L135.4,19.3z M138.7,1.5c0.1-0.8,0.5-1,1-0.8c2.2,0.2,4.5,1.3,6.8,3.2
		c3.1,2.4,4.7,6.5,4.7,12.3c-0.2,3.1-0.9,5.5-2.1,7c-2.1,2.3-3.7,0.3-4.6-5.7c-0.9-6-2.6-10.7-5.1-14C138.7,2.7,138.5,2.1,138.7,1.5
		z M154.2,28.1c0.3-0.8,0.7-0.8,1.2,0c2,2.6,4,6.3,5.8,10.9c2.4,6.1,3.2,11.7,2.5,16.9c-0.8,4.4-2.3,6.1-4.5,5.2
		c-1-0.9-1.6-2.8-1.8-5.7c-0.1-1.3-0.2-2.9-0.2-4.7c0-7.5-0.9-14-2.7-19.7C154.1,29.6,154,28.6,154.2,28.1z"/>
	<path class="st0" d="M115.5,37.9c-0.5-0.7-0.5-1.7,0-2.9c2.3-6.6,4-13.7,5.2-21.2c0.2-1.3,0.5-2,1-2.3c0.5-0.2,0.7-0.7,0.8-1.6
		c0-1.1-0.3-2.2-1-3.4c-1-2.1-2.2-3.8-3.4-5.2c-0.3-0.2-0.5-0.1-0.9,0.4c-0.6,0.9-1.1,1.8-1.7,2.9c-0.5,1-1,1.5-1.5,1.5h-1.7
		c-1.8-1.3-3.6-2.3-5.4-3.3c-0.5-0.2-0.8,0.3-0.7,1.6c0.1,2.4,0.2,4.7,0.3,7c0,1-0.2,1.2-0.6,0.5c-1.6-2.1-3.2-4-4.7-5.8
		c-0.6-0.6-0.9-0.3-1,0.9c-0.2,2.1-0.5,3.9-0.8,5.5c-0.2,1.3-0.5,1.4-0.8,0.4c-0.3-1.3-0.6-2.5-1-3.8c-0.3-0.9-0.6-1.4-0.9-1.4
		c-0.1,0-0.3,0.6-0.7,1.8c-0.3,1.1-0.5,2.1-0.7,3.2c-0.3,1.4-0.4,1.5-0.4,0.4V8c0-1,0.3-1.9,0.9-2.6c0.5-0.4,0.7-0.9,0.6-1.7
		c0-0.2-0.3-0.7-1-1.5c-1.7-0.8-3.6-1.4-5.6-1.8c-0.5-0.1-0.7,0.6-0.6,2c0.1,2.3,0.2,4.6,0.2,7v4.8c0,1-0.2,1.5-0.7,1.5
		c-1.5-0.1-2.8-0.2-4-0.6c-0.6-0.2-0.8,0.3-0.6,1.5l0.2,0.8c0.3,1.4,0.7,2,1.2,1.9c0.9-0.3,2-0.5,3.1-0.5c0.5,0,0.7,0.5,0.7,1.5
		v11.4c0,1-0.2,1.5-0.7,1.5c-1.9,0-3.7-0.2-5.3-0.7c-0.7-0.2-0.9,0.3-0.6,1.5l0.3,1.5c0.3,1.1,0.7,1.6,1.4,1.4c1-0.2,2-0.4,2.9-0.5
		h4.8c0.5,0,0.5,0.5,0.1,1.5c-3,7.1-6.1,13-9.3,17.7c-0.5,0.9-0.7,1.7-0.5,2.3c0.1,0.6,0.5,0.6,1.1,0c0.9-0.8,1.8-1.6,2.6-2.4
		c0.6-0.6,0.9-0.3,0.9,0.7v14.5c-0.1,4.8-0.1,9.6-0.2,14.5c-0.2,1.9,0.2,3,1.2,3.4c1,0.2,2,0.1,2.9-0.4c1.2-0.5,1.7-1.9,1.5-4.1
		v-1.2c0-1,0.2-1.5,0.7-1.5h4.5c0.5,0,0.7,0.5,0.7,1.6v1.7c-0.1,2.4,0.3,3.6,1.3,3.8c1,0.1,2,0,2.9-0.5c1.2-0.6,1.7-1.8,1.5-3.6
		L104,70V53.4c0-1,0.2-2,0.7-2.9c1-1.1,0.9-2.7-0.2-4.7c0-0.1,0.1-0.1,0.1-0.2c0.9-1.7,1-3.2,0.4-4.4c-0.6-1.3-1.3-2.4-2.3-3.3
		c-0.4-0.4-0.9-0.9-1.3-1.3l-0.2-0.1h4.9c0.5,0,0.7,0.5,0.7,1.5v34c-0.1,3.3-0.1,6.5-0.1,9.7c0,1.8,0,3.5,0,5.3
		c0.2,0.8,0.6,1.3,1.2,1.6c0.8,0.1,1.6,0.1,2.2-0.1c1-0.1,1.7-0.7,2.1-1.6c0.2-0.6,0.2-1.5,0.2-2.5l-0.1-13.3V10.8
		c0-1,0.2-1.5,0.7-1.5h1.4c0.4,0,0.6,0.5,0.6,1.6c-0.3,8.7-0.8,16.9-1.7,24.4c-0.1,1.3,0.1,2.5,0.6,3.7c1.6,4.4,2.6,9.1,2.8,14
		c0.3,4.1,0.2,7.8-0.5,11c-0.3,1.1-0.7,1.7-1.2,1.9h-1.4c-0.6,0-0.9,0.4-1,1.2c-0.1,0.9,0.1,1.4,0.5,1.6c0.4,0.6,0.8,1.2,1,1.8
		c0.4,1.2,0.6,2.4,0.6,3.7c0,1.5,0.1,2.8,0.2,3.8c0.2,1.4,0.6,2,1,1.9c2.1-0.3,3.8-2.9,5.2-7.6c0.3-0.9,0.5-2.2,0.8-3.8
		c1-7.2,0.1-14.9-2.8-23.1C117.6,41.6,116.5,39.2,115.5,37.9z M95,20.5c0-1,0.2-1.5,0.7-1.5h1.9c0.4,0,0.6,0.5,0.4,1.6
		c-0.6,2.7-1.4,5.6-2.3,8.7c-0.4,1.3-0.6,1.4-0.6,0.4V20.5z M98.5,76.8c0,0.9-0.2,1.4-0.7,1.4h-4.6c-0.5,0-0.7-0.5-0.7-1.5V66.3
		c0-1,0.2-1.5,0.7-1.5h4.6c0.5,0,0.7,0.5,0.7,1.5V76.8z M98.5,60c0,1-0.2,1.5-0.7,1.5h-4.6c-0.5,0-0.7-0.5-0.7-1.5v-8.9
		c0-1,0.2-1.5,0.7-1.5h4.6c0.5,0,0.7,0.5,0.7,1.6V60z M100,43c-0.3,0.5-0.6,1-0.9,1.6c-0.5,1.2-1,1.8-1.5,1.8h-3.1
		c-0.5,0-0.5-0.4,0-1.2c1.3-1.9,2.5-4.2,3.5-6.8c0.3-0.8,0.6-1.3,0.9-1.6c0.2,0.4,0.5,0.8,0.7,1.2c0.6,1.2,1,2.5,1.2,4
		C100.5,42.2,100.3,42.5,100,43z M106.6,29.8c0,1-0.2,0.9-0.6-0.4c-0.3-0.9-0.6-1.9-0.9-2.8c-0.3-1.1-0.7-1.8-0.9-1.9
		c-0.1,0-0.4,0.7-0.9,2c-0.5,1.6-0.9,3.1-1.2,4.6c-0.3,1.3-0.7,1.9-1.3,1.9c-0.5,0-0.5-0.6-0.1-1.9c1.6-4.6,2.8-9.1,3.7-13.4
		c0.3-1.3,0.6-1.9,1.1-2.1c0.6-0.1,1-0.3,1.1-0.7c0.1-0.2,0.1,0.3,0.1,1.3V29.8z"/>
</g>
</svg>
