<?xml version="1.0" encoding="UTF-8"?>
<svg id="_레이어_1" data-name=" 레이어 1" xmlns="http://www.w3.org/2000/svg" viewBox="0 0 174 99">
  <defs>
    <style>
      .cls-1 {
        fill: #f3f1ee;
      }

      .cls-1, .cls-2 {
        stroke-width: 0px;
      }

      .cls-2 {
        fill: #04260c;
      }
    </style>
  </defs>
  <rect class="cls-2" width="174" height="99"/>
  <path class="cls-1" d="m37.08,5.09c.2,0,.48.19.85.57,1.37,1.52,2.62,3.35,3.79,5.49.31.51.33,1.17.04,1.99-.17.32-.54.47-1.11.47h-11.75c-.48,0-.72.51-.72,1.52v1.42c0,1.01.23,1.52.68,1.52h8.17c.45,0,.81-.25,1.11-.76.4-.76.81-1.45,1.23-2.08.61-.81,1.16-.98,1.7-.47.99,1.25,2.11,3.13,3.36,5.59.34.57.57,1.25.68,2.08-.06,1.39-.48,1.99-1.28,1.81-.26-.06-.54.17-.85.66-1.05,1.59-2.17,3.09-3.36,4.55-.31.32-.75.47-1.32.47h-5.96c-.54.06-1.09.17-1.66.28-.57.19-.99-.35-1.28-1.61l-.17-.76c-.28-1.2-.1-1.7.55-1.52,1.13.32,2.37.51,3.7.57.45,0,.88-.5,1.28-1.52.61-1.52,1.09-2.4,1.49-2.65.26.06.57.44.94,1.14.48.95.72.79.68-.47s-.28-1.89-.72-1.89h-8.26c-.48,0-.72.51-.72,1.52v7.2l.17,6.53c.09,1.01-.06,1.86-.43,2.56-.23.32-.23.47,0,.47.85.57,1.81,1.7,2.85,3.41.57.76.68,1.64.34,2.65-.28.57-.57,1.2-.85,1.89-.03,2.79.03,6.34.17,10.7,0,1.01-.03,1.67-.09,1.99-.14.76-.44,1.33-.89,1.7-1.02.7-2.04.81-3.06.39-.4-.25-.62-.91-.68-1.99,0-.44-.24-.66-.72-.66-.54,0-.81.28-.85.85-.06.51-.17,1.01-.34,1.52-1.08,1.14-2.31,1.37-3.7.66-.31-.32-.48-.85-.51-1.61l.13-6.25v-7.58c-.03-1.64-.09-3.25-.17-4.83-.09-1.45.14-2.08.68-1.89,1.05.57,2.16,1.25,3.32,2.08.48.51.94.7,1.37.57.45,0,.89-.5,1.32-1.52l.43-.76c.06-.25.2-.5.43-.76.03-.13-.24-.09-.81.09-.96.32-1.93.35-2.9.09-.68-.32-1.06-1.1-1.14-2.37l.17-7.95v-7.2c0-1.01-.23-1.52-.68-1.52h-9.72c-.45,0-.62.63-.51,1.89l.09,1.33c.03,1.07.31,1.67.85,1.81,1.05.32,2.09.47,3.12.47.45,0,.94-.61,1.45-1.81l.61-1.42c.51-1.39,1.08-1.39,1.7,0,.74,1.14,1.43,2.45,2.09,3.99.34.57.35,1.17.04,1.81-.17.25-.54.39-1.11.39h-5.15c-.72.06-1.43.19-2.17.39-.57.19-.94-.09-1.11-.85-.2-.81-.36-.61-.47.66-.4,3.03-1.21,4.77-2.43,5.21-.81.25-1.52.19-2.09-.19-.65-.25-1.18-1.07-1.57-2.45-.72-3.67-.28-6.75,1.28-9.28,1.59-1.89,2.48-4.36,2.68-7.39.03-1.2.21-1.86.55-1.99s.62.44.85,1.7l.09.76c.17,1.01.48,1.52.94,1.52h9.96c.48,0,.72-.5.72-1.52v-1.42c0-1.01-.28-1.52-.85-1.52l-1.83.09h-4.1c-1.14,0-2.28.13-3.45.39-.65.19-1.11-.28-1.37-1.42l-.34-1.61c-.26-1.2-.07-1.7.55-1.52,1.65.44,3.53.7,5.66.76h16.35c.45,0,.81-.25,1.06-.76,1.39-2.4,2.38-3.85,2.98-4.36v.04-.07Zm2.43,34.75c.28-.13.69.17,1.23.85,1.25,1.33,2.04,2.59,2.38,3.79.09.63-.09,1.29-.51,1.99-.37.81-.55,1.74-.55,2.75,0,2.97.07,6.03.21,9.19-.06,1.45-.43,2.37-1.11,2.75-.26.13-.17.54.3,1.23.54.76,1.09,1.64,1.66,2.65.65.95.81,2.03.47,3.23-.09.19-.41.28-.98.28h-8.38c-.43,0-.37.13.17.39,1.59.57,2.85,1.17,3.79,1.81.77.39.99,1.17.68,2.37-.09.25-.31.47-.68.66-.45.13-.74.39-.85.76-.11.32.11.47.68.47,1.59,0,2.81.73,3.67,2.18.68,1.33.95,3.03.81,5.11-.17,1.07,0,2.08.51,3.03l1.45,2.45c.72,1.2.89,2.27.55,3.23-.2.44-.58.61-1.14.47H11.06c-1.67.13-2.98.28-3.92.47-.57.13-1.01-.47-1.32-1.81l-.17-.95c-.26-1.33-.11-1.89.43-1.7.31,0,.65.06,1.02.19.43.06.58-.19.47-.76-.17-.57.06-1.45.68-2.65,1.84-4.17,3.04-8.81,3.57-13.93.09-1.07-.14-1.61-.68-1.61l-1.62.28c-.57.13-.99-.41-1.28-1.61l-.3-1.42c-.26-1.2-.11-1.74.43-1.61,1.62.51,3.3.76,5.06.76h22.17c.43,0,.87-.47,1.32-1.42l.26-.57c.51-1.2.72-1.86.64-1.99-.11-.32-.18-.63-.21-.95,0-.19-.28-.28-.81-.28s-.81.22-.85.66c0,.88-.18,1.55-.55,1.99-1.02.81-2.14,1.03-3.32.66-.51-.39-.74-1.14-.68-2.27,0-1.45.03-2.97.09-4.55v-8.71c-.03-1.83-.09-3.63-.17-5.41-.09-1.25.17-1.77.72-1.52,1.19.57,2.52,1.42,4,2.56h.68c.45,0,.91-.5,1.37-1.52l.81-1.42c.2-.32.4-.5.61-.57v.02-.03Zm-24.17.57c.51-.76.98-.85,1.4-.28.54.51,1.11,1.17,1.7,1.99,1.3,1.52,1.49,3.03.55,4.55-.28.7-.43,1.55-.43,2.56v4.83c.03,1.25.07,2.56.13,3.89.26,2.4-.21,3.89-1.4,4.45-.61.39-1.4.44-2.43.19-.4-.06-.65-.63-.77-1.7-.03-.69-.28-1.03-.77-1.03s-.74.22-.77.66c.06,1.01-.28,1.81-.98,2.37-.81.51-1.76.57-2.81.19-.57-.39-.81-1.07-.77-2.08.03-1.89.07-3.85.13-5.87v-7.29c-.03-1.83-.1-3.67-.21-5.49-.06-1.25.2-1.81.77-1.61.91.51,1.96,1.17,3.15,1.99.51.57.99.79,1.45.66.43,0,.85-.5,1.28-1.52l.43-.76c.09-.25.2-.47.34-.66v-.04Zm-1.28,28.13c-.45,0-.44.17.04.47,2.01.57,3.56,1.33,4.65,2.27.51.51.52,1.2.04,2.08-.2.32-.43.47-.68.47-.43.25-.7.57-.81.95-.06.19.17.25.68.19,1.33.06,2.41.76,3.23,2.08,1.02,2.03,1.3,4.48.85,7.39-.09.57-.28,1.2-.55,1.89-.77,1.33-1.73,1.77-2.9,1.33-.85-.19-1.37-1.33-1.53-3.41.06-2.03,0-3.79-.21-5.31-.09-.63-.24-1.07-.47-1.33-.06,0-.31.61-.77,1.81-.54,1.45-1.09,2.62-1.66,3.5-1.65,2.33-3.42,3.89-5.32,4.65-.4.13-.31.25.26.39l3.15.19h9.74c.48,0,.72-.51.72-1.52v-16.57c0-1.01-.23-1.52-.68-1.52h-7.79v.02h.02Zm2.68-35.43c.77-2.08,1.38-2.97,1.83-2.65.74,1.01,1.56,2.45,2.47,4.36.62.95.74,1.89.34,2.84-.09.13-.41.19-.98.19h-6.47c-.54.06-1.08.19-1.62.39-.57.19-1.01-.41-1.32-1.81l-.13-.57c-.26-1.2-.1-1.74.47-1.61,1.22.39,2.55.61,4,.66.45,0,.92-.61,1.4-1.81h.02Zm-3.36,13.17c-.51,0-.77.51-.77,1.52v7.58c0,1.01.24,1.52.72,1.52.54,0,.81-.5.81-1.52v-7.49c0-1.07-.26-1.61-.77-1.61h.01Zm11.66,0c-.57,0-.85.51-.85,1.52v7.58c0,1.01.28,1.52.81,1.52.57,0,.85-.5.85-1.52v-7.49c0-1.07-.28-1.61-.81-1.61h0Zm4.04,22.25c-.45,0-.68.51-.68,1.52v13.54c0,1.01.24.91.72-.28,1.56-4.61,2.48-9.03,2.77-13.27.06-1.01-.14-1.52-.61-1.52h-2.21.01Zm7.11,9c-1.19,3.67-2.55,6.22-4.1,7.67-.79.95-1.81,1.7-3.02,2.27-.45.19-.68.35-.68.47.03.13.28.19.72.19h7.92c.45,0,.79-.28,1.02-.85.17-.44.1-.85-.21-1.23-.74-1.25-1.03-3.01-.89-5.21-.06-1.64-.31-2.75-.77-3.31h.01Zm.3-46.31c.43-1.07.89-1.1,1.4-.09.72,1.01,1.49,2.49,2.34,4.45.2.44.23,1.01.09,1.7-.2.57-.61.76-1.19.57h-6.77c-.54.06-1.09.19-1.66.39-.57.19-.99-.39-1.28-1.7l-.17-.76c-.28-1.2-.1-1.67.55-1.42,1.33.39,2.82.57,4.47.57.45,0,.94-.63,1.45-1.89l.77-1.81h-.01Zm.34,15.06c-.57,0-.85.51-.85,1.52v7.58c0,1.01.28,1.52.81,1.52.57,0,.85-.5.85-1.52v-7.49c0-1.07-.28-1.61-.81-1.61h0Z"/>
  <path class="cls-1" d="m55.88,32.47c.51-1.77.99-2.49,1.45-2.18.99,1.45,2.23,3.95,3.7,7.49.51,1.07.58,2.12.21,3.12-.09.13-.41.19-.98.19h-2.72c-.43,0-.7.63-.81,1.89-.68,7.95-2.26,14.84-4.72,20.64-.54,1.07-.55,1.59-.04,1.52,1.45-.32,2.98-.91,4.6-1.81.45-.25.62-1.01.51-2.27-.26-1.64-.64-3.5-1.14-5.59-.34-1.2-.36-2.03-.04-2.45.23-.39.68-.25,1.37.39,2.01,1.96,3.62,4.92,4.81,8.91.65,2.59.79,5.24.43,7.95-.43,3.03-1.35,4.61-2.77,4.73-.48.06-.87,0-1.14-.19-.79-.5-1.16-1.81-1.11-3.89.09-.63.1-1.67.04-3.13,0-1.07-.23-1.1-.68-.09-2.04,3.92-4.11,6.88-6.21,8.91-.45.39-.72,1.07-.81,2.08.03,1.01-.13,1.81-.47,2.37-.43.39-.77-.17-1.02-1.61-.74-3.85-1.39-7.86-1.96-12.03-.23-1.64-.09-2.43.43-2.37h2c.45,0,.77-.61.94-1.81.77-6.88,1.13-13.84,1.11-20.83,0-1.01-.23-1.52-.68-1.52-.91.06-1.9.28-2.98.66-.26-.88-.48-1.77-.68-2.65-.28-1.33-.14-1.93.43-1.81,1.84.51,3.97.79,6.38.85.45.06.89-.54,1.32-1.81.4-1.2.81-2.43,1.28-3.69l-.02.03h.02Zm-.47-19.52c.57-1.33,1.09-1.48,1.57-.47.79,1.25,1.92,3.47,3.36,6.63.62,2.03.33,2.97-.89,2.84h-6.85c-1.08.06-2.16.19-3.23.39-.65.19-1.11-.28-1.37-1.42l-.34-1.33c-.26-1.25-.1-1.81.47-1.61,1.42.39,2.9.61,4.43.66.43,0,.88-.63,1.37-1.89.48-1.2.98-2.45,1.49-3.79h-.01Zm13.32-6.07c0-1.33.28-1.93.85-1.81,1.9.39,3.57.95,5.02,1.7.62.19,1.01.81,1.14,1.89-.06.88-.39,1.39-.98,1.52-.28-.06-.7.47-1.23,1.61-.77,1.39-1.53,2.56-2.3,3.5-.48.63-.5.95-.04.95h5.36c.43,0,.92-.54,1.49-1.61.65-1.2,1.22-2.11,1.7-2.75.26-.25.54-.13.85.39,1.11,1.33,2.14,2.9,3.06,4.73.4,1.33.3,2.4-.3,3.23-.2.32-.4.7-.61,1.14-.11.44-.17,1.17-.17,2.18v16.57l.13,9.67c.2,1.52-.03,2.75-.68,3.69-.96.7-1.97.98-3.02.85-.45-.06-.44,0,.04.19.72.39,1.22.7,1.53.95.54.57.81,1.01.81,1.33.03.63-.13,1.03-.47,1.23-.4.06-.62.44-.68,1.14l-.64,2.94c-.23,1.01-.23,1.42,0,1.23.17-.13.54.28,1.11,1.23.85,1.59,1.45,3.25,1.79,5.02.17,1.14.31,1.01.43-.39l.21-2.75c.09-1.39.3-1.99.64-1.81.4,0,.61.63.61,1.89v6.16c.03.88.03,1.83,0,2.84-.11,1.14.17,2.49.85,4.07.34.69.55,1.29.64,1.81.45,2.71.07,5.14-1.14,7.29-1.19,1.89-3.06,2.97-5.63,3.23h-2.98c-1.5-.13-2.91-.76-4.21-1.89-1.19-1.52-1.89-4.45-2.09-8.81v-17.8c0-1.01-.03-1.52-.09-1.52l-.21.19c-.06.19-.14.88-.26,2.08-1.33,12.12-4.76,20.81-10.26,26.05-2.01,1.89-4.21,3.13-6.61,3.69-.57.06-.98-.17-1.23-.66-.26-.63-.09-1.17.51-1.61,2.64-2.4,4.88-5.34,6.73-8.81,1.25-2.45,2.25-4.96,2.98-7.49,1.53-5.11,2.41-11.02,2.64-17.71.06-1.2.37-1.7.94-1.52l4.21,1.7c.45.19.68-.22.68-1.23v-3.6c0-1.01-.23-1.52-.68-1.52h-1.79c-.45,0-.68.22-.68.66-.03.7-.17,1.23-.39,1.61-1.28,1.2-2.68,1.52-4.21.95-.62-.76-.84-1.81-.64-3.13,0-2.79,0-5.59.04-8.43v-19.98c-.03-3.16-.1-6.03-.21-8.62-.06-1.25.18-1.74.72-1.42,1.53.81,2.94,1.74,4.21,2.75.34.25.78.39,1.32.39.57,0,.89-.61.98-1.81.14-2.21.2-4.73.17-7.58l.02.04h.03Zm-1.4,12.59c-.45,0-.68.51-.68,1.52v9.09c0,1.01.23,1.52.68,1.52h1.32c.45,0,.68-.5.68-1.52v-9.09c0-1.01-.23-1.52-.68-1.52h-1.32Zm-.04,15.26c-.43,0-.64.51-.64,1.52v10.7c0,1.01.23,1.52.68,1.52h1.32c.45,0,.68-.5.68-1.52v-10.7c0-1.01-.23-1.52-.68-1.52,0,0-1.37,0-1.37,0Zm7.62-15.26c-.45,0-.68.51-.68,1.52v9.09c0,1.01.23,1.52.68,1.52h1.79c.45,0,.68-.5.68-1.52v-9.09c0-1.01-.21-1.52-.64-1.52h-1.84Zm-.04,15.26c-.43,0-.64.51-.64,1.52v10.7c0,1.01.23,1.52.68,1.52h1.79c.45,0,.68-.5.68-1.52v-10.7c0-1.01-.21-1.52-.64-1.52h-1.88Zm.77,16.68c-.45,0-.68.51-.68,1.52v14.02c0,1.07.2,1.67.61,1.81.37.19.58-.25.64-1.33l.21-4.65v-5.78l-.09-1.7c-.06-1.2.26-1.64.94-1.33l.26.09c.45.13.61.06.43-.19-.31-.44-.5-.95-.55-1.52,0-.63-.21-.95-.64-.95,0,0-1.12,0-1.12,0Zm-.51,22.73c-.11-1.01-.17-1.03-.17-.09v4.45c.03,1.25.3,2.03.81,2.27,1.79.81,3.53.66,5.23-.47.61-.88.65-1.23.17-1.03-.48,0-.85-.13-1.11-.39-.48-.81-.65-1.7-.51-2.65.03-.25.04-.57.04-.95.09-1.01-.1-1.1-.55-.28-.51.95-1.03,1.83-1.57,2.65-.28.51-.47,1.07-.55,1.7,0,.69-.13,1.17-.39,1.42-.2.19-.39,0-.55-.57-.34-1.33-.62-3.35-.85-6.07h-.01Zm4.34-8.81c-.17-.88-.4-.81-.68.19l-.77,2.37c-.48,1.25-.44,1.99.13,2.18l.94.19c.48.06.72-.41.68-1.42,0-1.07-.1-2.25-.3-3.5h0Z"/>
  <path class="cls-1" d="m94.25,6.99c-.11-1.39.09-2.05.61-1.99,1.99.39,3.84.98,5.57,1.81.65.81.98,1.33.98,1.52.11.76-.09,1.33-.61,1.7-.57.76-.85,1.64-.85,2.65v5.21c0,1.14.13,1.01.39-.39.2-1.07.43-2.15.68-3.23.43-1.2.67-1.81.72-1.81.34,0,.65.47.94,1.42.34,1.25.67,2.53.98,3.79.28,1.01.54.88.77-.39.28-1.64.54-3.5.77-5.59.11-1.25.45-1.59,1.02-.95,1.56,1.83,3.13,3.79,4.72,5.87.45.7.67.54.64-.47-.06-2.33-.14-4.7-.26-7.1-.09-1.33.14-1.86.68-1.61,1.76.95,3.56,2.05,5.36,3.31h1.66c.45,0,.95-.5,1.49-1.52.57-1.07,1.13-2.05,1.7-2.94.31-.5.61-.63.85-.39,1.19,1.39,2.31,3.12,3.36,5.21.68,1.2,1.02,2.34,1.02,3.41-.03.88-.28,1.42-.77,1.61-.48.32-.81,1.11-.98,2.37-1.16,7.58-2.9,14.71-5.2,21.4-.43,1.25-.41,2.25.04,2.94.91,1.25,2.06,3.73,3.45,7.39,2.86,8.27,3.8,16.04,2.81,23.3-.23,1.59-.48,2.84-.77,3.79-1.39,4.8-3.12,7.35-5.2,7.67-.43.13-.75-.51-.98-1.89-.14-1.01-.21-2.27-.21-3.79-.06-1.25-.28-2.49-.64-3.69-.26-.63-.61-1.23-1.02-1.81-.43-.19-.61-.72-.51-1.61.09-.81.41-1.23.98-1.23h1.4c.51-.19.91-.81,1.19-1.89.68-3.23.85-6.91.51-11.09-.2-4.99-1.12-9.69-2.77-14.11-.45-1.14-.64-2.37-.55-3.69.85-7.64,1.4-15.85,1.66-24.63.03-1.07-.17-1.61-.61-1.61h-1.45c-.45,0-.68.51-.68,1.52v60.81l.09,13.35c.03,1.07-.04,1.93-.21,2.56-.4.95-1.09,1.48-2.09,1.61-.65.19-1.39.22-2.21.09-.57-.25-.96-.79-1.19-1.61-.03-1.77-.03-3.54,0-5.31,0-3.23.03-6.47.09-9.75v-34.28c0-1.01-.23-1.52-.68-1.52h-6.55c-.45,0-.92.63-1.4,1.89-1.02,2.59-2.18,4.87-3.49,6.83-.51.81-.53,1.23-.04,1.23h3.15c.45,0,.95-.61,1.49-1.81.28-.57.57-1.1.85-1.61.61-1.01,1.18-1.37,1.74-1.03.54.44,1.37,1.61,2.47,3.5,1.39,2.21,1.55,3.92.47,5.11-.45.95-.68,1.93-.68,2.94v16.68l.13,14.39c.17,1.83-.33,3.03-1.49,3.6-.85.44-1.81.61-2.85.47-.99-.13-1.42-1.39-1.28-3.79v-1.7c0-1.07-.23-1.61-.68-1.61h-4.51c-.48,0-.72.5-.72,1.52v1.23c.23,2.27-.28,3.67-1.49,4.17-.85.44-1.81.57-2.85.39-1.05-.39-1.46-1.52-1.23-3.41.03-4.87.09-9.72.17-14.59v-14.59c0-1.01-.28-1.23-.85-.66-.77.88-1.62,1.7-2.55,2.45-.65.57-1.03.57-1.14,0-.23-.69-.07-1.48.47-2.37,3.15-4.67,6.24-10.61,9.28-17.8.4-1.01.37-1.52-.09-1.52h-4.77c-.96.06-1.94.22-2.94.47-.65.19-1.11-.28-1.37-1.42l-.3-1.52c-.26-1.2-.06-1.7.61-1.52,1.62.44,3.38.66,5.28.66.45,0,.68-.5.68-1.52v-11.46c0-1.01-.23-1.52-.68-1.52-1.16,0-2.21.17-3.15.47-.54.13-.95-.5-1.23-1.89l-.17-.85c-.26-1.2-.07-1.7.55-1.52,1.16.32,2.5.51,4,.57.45,0,.68-.5.68-1.52v-4.83c-.06-2.33-.13-4.67-.21-7.01h0l.02.02Zm4,47.63c-.45,0-.68.51-.68,1.52v9c0,1.01.23,1.52.68,1.52h4.55c.45,0,.68-.5.68-1.52v-8.91c0-1.07-.23-1.61-.68-1.61h-4.55Zm0,15.35c-.45,0-.68.51-.68,1.52v10.51c0,1.01.23,1.52.68,1.52h4.55c.45,0,.68-.47.68-1.42v-10.61c0-1.01-.23-1.52-.68-1.52h-4.55Zm2.38-46.21c-.45,0-.68.51-.68,1.52v9.28c0,1.01.2.88.61-.39.96-3.16,1.74-6.09,2.34-8.81.17-1.07.04-1.61-.39-1.61h-1.88Zm10.99-2.56c0-1.07-.03-1.52-.09-1.33-.2.39-.58.61-1.14.66-.45.13-.81.81-1.06,2.08-.85,4.36-2.07,8.87-3.67,13.54-.4,1.25-.35,1.89.13,1.89.54,0,.96-.63,1.28-1.89.37-1.52.78-3.06,1.23-4.65.51-1.33.81-1.99.94-1.99.28.13.61.76.94,1.89.34.95.64,1.89.89,2.84.37,1.25.55,1.39.55.39v-13.45s0,.02,0,.02Z"/>
  <path class="cls-1" d="m135.57,39.19c.03-1.59.24-2.33.64-2.27.4-.06.69.63.89,2.08.57,5.31.81,10.92.72,16.86-.11,4.61-.54,8.37-1.28,11.27-.83,3.09-1.83,5.02-3.02,5.78-1.28.63-2.41.35-3.4-.85-.51-.81-.84-2.03-.98-3.6-.43-3.16.17-6.22,1.74-9.19,1.3-2.33,2.33-4.99,3.06-7.95.85-3.35,1.39-7.39,1.62-12.12h0v-.02Zm4.85-15.06c-.06-1.39.2-1.99.77-1.81,3.01.81,5.09,1.59,6.26,2.27,1.19.81,1.32,2.03.39,3.6-.4.32-.72.63-.94.95-.26.44-.39,1.11-.39,1.99v43.57c.06,1.14.3,2.03.72,2.65.62.57,1.76.92,3.4,1.03,2.3.19,4.24-.32,5.83-1.52.65-.81,1.01-1.64,1.06-2.45.4-3.53.83-8.52,1.28-14.96.09-1.45.35-2.21.81-2.27.45.19.68.88.68,2.08,0,4.87.06,9.06.17,12.59-.09,1.7.39,3.03,1.4,3.99.72.76,1.12,1.81,1.23,3.12.17,1.89.13,3.47-.13,4.73-.23,1.52-.62,2.75-1.19,3.69-.74,1.33-1.87,2.21-3.4,2.65-1.5.44-2.96.72-4.38.85h-4.17c-1.73-.06-3.5-.47-5.32-1.23-.65-.25-1.22-.66-1.7-1.23-.74-1.07-1.23-2.18-1.49-3.31-.45-2.15-.7-4.39-.72-6.73V30.86l-.17-6.73h-.02Zm3.28-17.99c.14-.76.48-1.03,1.02-.85,2.25.19,4.5,1.25,6.77,3.23,3.15,2.45,4.72,6.61,4.72,12.41-.2,3.16-.89,5.49-2.09,7.01-2.14,2.27-3.67.35-4.65-5.78-.85-6.07-2.55-10.77-5.11-14.11-.62-.63-.85-1.25-.68-1.89h.01Zm15.53,26.81c.28-.76.69-.76,1.23,0,2.04,2.65,3.97,6.31,5.79,10.99,2.38,6.12,3.23,11.81,2.51,17.05-.83,4.43-2.31,6.16-4.47,5.21-.99-.88-1.59-2.81-1.79-5.78-.11-1.33-.17-2.9-.17-4.73.03-7.51-.88-14.15-2.72-19.89-.51-1.33-.64-2.27-.39-2.84h0Z"/>
</svg>