<?xml version="1.0" encoding="UTF-8"?>
<svg id="_레이어_1" data-name=" 레이어 1" xmlns="http://www.w3.org/2000/svg" viewBox="0 0 25 18">
  <defs>
    <style>
      .cls-1 {
        fill: #04260c;
        stroke-width: 0px;
      }
    </style>
  </defs>
  <path class="cls-1" d="m20.44,18H4.57c-2.13,0-3.93-1.56-4.19-3.62l-.07-.55c-.42-3.2-.42-6.46,0-9.67l.07-.55C.65,1.55,2.45,0,4.57,0h15.87c2.13,0,3.93,1.56,4.19,3.62l.07.55c.41,3.2.41,6.46,0,9.67l-.07.55c-.27,2.06-2.07,3.62-4.19,3.62ZM4.57.95c-1.64,0-3.03,1.2-3.23,2.79l-.07.54c-.41,3.13-.41,6.3,0,9.43l.07.55c.2,1.59,1.59,2.78,3.23,2.78h15.87c1.63,0,3.03-1.2,3.23-2.79l.07-.55c.4-3.14.4-6.31,0-9.43h0s-.07-.55-.07-.55c-.2-1.59-1.59-2.79-3.23-2.79H4.57Z"/>
  <polygon class="cls-1" points="9.33 12.91 9.33 5.09 17.03 9 9.33 12.91"/>
</svg>